<?xml version="1.0" encoding="UTF-8" standalone="no"?>
<!-- Created with Inkscape (http://www.inkscape.org/) -->
<svg
   xmlns:dc="http://purl.org/dc/elements/1.1/"
   xmlns:cc="http://creativecommons.org/ns#"
   xmlns:rdf="http://www.w3.org/1999/02/22-rdf-syntax-ns#"
   xmlns:svg="http://www.w3.org/2000/svg"
   xmlns="http://www.w3.org/2000/svg"
   xmlns:sodipodi="http://sodipodi.sourceforge.net/DTD/sodipodi-0.dtd"
   xmlns:inkscape="http://www.inkscape.org/namespaces/inkscape"
   id="svg2"
   sodipodi:version="0.32"
   inkscape:version="0.46"
   width="266"
   height="400"
   version="1.0"
   sodipodi:docname="Female black symbol.svg"
   inkscape:output_extension="org.inkscape.output.svg.inkscape">
  <metadata
     id="metadata7">
    <rdf:RDF>
      <cc:Work
         rdf:about="">
        <dc:format>image/svg+xml</dc:format>
        <dc:type
           rdf:resource="http://purl.org/dc/dcmitype/StillImage" />
      </cc:Work>
    </rdf:RDF>
  </metadata>
  <defs
     id="defs5">
    <inkscape:perspective
       sodipodi:type="inkscape:persp3d"
       inkscape:vp_x="0 : 526.18109 : 1"
       inkscape:vp_y="0 : 1000 : 0"
       inkscape:vp_z="744.09448 : 526.18109 : 1"
       inkscape:persp3d-origin="372.04724 : 350.78739 : 1"
       id="perspective9" />
    <inkscape:perspective
       id="perspective7"
       inkscape:persp3d-origin="68 : 68.333333 : 1"
       inkscape:vp_z="136 : 102.5 : 1"
       inkscape:vp_y="0 : 1000 : 0"
       inkscape:vp_x="0 : 102.5 : 1"
       sodipodi:type="inkscape:persp3d" />
  </defs>
  <sodipodi:namedview
     inkscape:window-height="712"
     inkscape:window-width="1024"
     inkscape:pageshadow="2"
     inkscape:pageopacity="0.0"
     guidetolerance="10.0"
     gridtolerance="10.0"
     objecttolerance="10.0"
     borderopacity="1.0"
     bordercolor="#666666"
     pagecolor="#ffffff"
     id="base"
     showgrid="false"
     inkscape:zoom="1.155"
     inkscape:cx="133"
     inkscape:cy="200"
     inkscape:window-x="-4"
     inkscape:window-y="-4"
     inkscape:current-layer="svg2" />
  <path
     style="fill:#000000;stroke:#000000;stroke-width:0;stroke-linejoin:round;stroke-miterlimit:4;stroke-dasharray:none"
     id="path2207"
     stroke-miterlimit="4"
     d="M 156.52962,259.27853 C 224.3161,247.3062 271.58477,186.46704 265.46802,119.06482 C 259.35123,51.66259 201.87297,0 132.99999,0 C 64.127044,0 6.6487638,51.66259 0.53198382,119.06482 C -5.5847962,186.46704 41.683904,247.3062 109.47036,259.27853 L 109.47036,303.50526 L 56.272944,303.50526 L 56.272944,345.72171 L 109.47036,345.72171 L 109.47036,400 L 156.52962,400 L 156.52962,345.72171 L 207.68099,345.72171 L 207.68099,303.50526 L 156.52962,303.50526 L 156.52962,259.27853 z M 232.23365,130.61889 C 232.23365,183.91145 188.26324,227.11361 134.02302,227.11361 C 79.782794,227.11361 35.812404,183.91145 35.812404,130.61889 C 35.812404,77.326321 79.782794,34.12416 134.02302,34.12416 C 188.26324,34.12416 232.23365,77.326321 232.23365,130.61889 L 232.23365,130.61889 z" />
</svg>
